<svg width="1305" height="433" viewBox="0 0 1305 433" fill="none" xmlns="http://www.w3.org/2000/svg">
<path d="M1305 101.51C1305 154.685 1205.21 199.771 1076.2 199.771C947.192 199.771 1042.81 154.685 1042.81 101.51C1042.81 48.3344 1075.17 71.4643 1122.84 11.7026C1264.22 11.7026 1305 48.3344 1305 101.51Z" fill="#BEBEBE"/>
<path d="M553.804 256.906L1222.57 146.622L1173.12 190.362L568.128 299.498L553.804 256.906Z" fill="#BEBEBE"/>
<path d="M503.999 143.672L46.0221 17.3591L520.874 88.2509L503.999 143.672Z" fill="#BEBEBE"/>
<path d="M0 3.90063L435 11.6474L457.597 71.1502L0 3.90063Z" fill="#1760EC" fill-opacity="0.32"/>
<path d="M1247.44 100.801C1241.64 129.006 1126.38 166.146 1044.28 166.146C974.911 166.146 1059.15 125.854 1059.15 97.3625C1059.15 68.8714 1064.1 49.2139 1064.1 49.2139C1247.44 38.8964 1252.4 76.7274 1247.44 100.801Z" fill="#7A7A7A"/>
<rect width="47.485" height="186.075" transform="matrix(0.987558 0.157254 -0.308876 0.951102 1058.21 24.1624)" fill="#BEBEBE"/>
<path d="M1044.02 12.2759L1121.65 12.2759L980.416 419.729L909.799 406.029L1044.02 12.2759Z" fill="#BEBEBE"/>
<path d="M447.64 12.2605L522.666 12.2605L654.458 406.037L584.961 419.729L447.64 12.2605Z" fill="#BEBEBE"/>
<path d="M751.617 16.2317L816.585 16.2316L649.929 419.729L584.961 419.729L751.617 16.2317Z" fill="#BEBEBE"/>
<path d="M757.266 30.398L816.585 16.2316L980.416 419.729L915.448 419.729L757.266 30.398Z" fill="#BEBEBE"/>
<rect x="1044" y="11.7026" width="81.5625" height="15.6036" fill="#BEBEBE"/>
</svg>
