<svg width="954" height="328" viewBox="0 0 954 328" fill="none" xmlns="http://www.w3.org/2000/svg">
    <path d="M954 76.8944C954 117.175 880.955 151.327 786.521 151.327C692.087 151.327 762.075 117.175 762.075 76.8944C762.075 36.6137 785.768 54.1347 820.663 8.86487C924.149 8.86487 954 36.6137 954 76.8944Z" fill="#D1D1D1"/>
    <path d="M404.13 194.608L893.659 111.067L857.462 144.201L414.615 226.871L404.13 194.608Z" fill="#D1D1D1"/>
    <path d="M367.673 108.832L32.4376 13.1494L380.025 66.8504L367.673 108.832Z" fill="#D1D1D1"/>
    <path d="M0 2.30176L318.417 8.17001L334.958 53.2437L0 2.30176Z" fill="#1760EC" fill-opacity="0.21"/>
    <path d="M911.868 76.3577C907.618 97.7229 823.252 125.857 763.157 125.857C712.377 125.857 774.038 95.3348 774.038 73.7526C774.038 52.1704 777.665 37.2798 777.665 37.2798C911.868 29.4642 915.495 58.1214 911.868 76.3577Z" fill="white"/>
    <rect width="34.7892" height="140.507" transform="matrix(0.986693 0.162593 -0.29942 0.954121 773.349 18.3031)" fill="#D1D1D1"/>
    <path d="M762.961 9.29907L819.789 9.29909L716.407 317.947L664.716 307.569L762.961 9.29907Z" fill="#D1D1D1"/>
    <path d="M326.419 9.28729L381.337 9.28729L477.808 307.575L426.937 317.947L326.419 9.28729Z" fill="#D1D1D1"/>
    <path d="M548.928 12.2958L596.483 12.2957L474.493 317.947L426.937 317.947L548.928 12.2958Z" fill="#D1D1D1"/>
    <path d="M553.063 23.0269L596.483 12.2957L716.407 317.947L668.851 317.947L553.063 23.0269Z" fill="#D1D1D1"/>
<rect x="762.95" y="8.86487" width="59.7031" height="11.8198" fill="#D1D1D1"/>
</svg>
